<svg width="50" height="34" viewBox="0 0 50 34" fill="none" xmlns="http://www.w3.org/2000/svg">
<path d="M4.99603 17.3882C6.83537 17.1684 8.60522 16.8752 10.3913 16.7603C14.2986 16.4738 18.2214 17.132 21.7123 18.66C23.181 19.3117 24.5153 19.7217 26.1137 19.5989C26.3755 19.6044 26.6353 19.5591 26.8736 19.4662C31.3352 16.9049 36.2788 16.4018 41.4678 16.9505C42.6261 17.0753 43.7844 17.2734 45.1373 17.4615C44.6971 15.8353 44.2963 14.3397 43.8863 12.8442C43.2701 10.5979 42.6423 8.35552 42.0331 6.10922C41.5281 4.24325 40.3791 3.72229 38.3104 4.4037C37.4543 4.6985 36.5787 4.94985 35.688 5.15643C34.7151 5.36838 34.0271 4.95834 33.6587 4.20363C33.2904 3.44893 33.3367 2.66252 34.1985 2.26833C36.2278 1.34327 38.2664 0.340954 40.7428 0.733164C43.3605 1.14716 45.084 2.43671 45.7141 4.62754C47.1225 9.52423 48.7048 14.4011 49.6847 19.3632C50.2198 22.073 50.0136 24.9829 49.5155 27.7204C48.9225 30.9948 45.0956 33.5679 41.037 33.7204C38.5212 33.8135 35.8942 33.7898 33.4734 33.2767C29.4565 32.4269 27.14 29.4814 26.7878 25.5712C26.7554 25.2107 26.7369 24.8502 26.7068 24.4064H23.3663C23.2597 25.2265 23.1902 26.0406 23.042 26.8429C22.7187 28.6863 21.6637 30.3784 20.0541 31.6354C18.4445 32.8924 16.3782 33.6377 14.202 33.7462C12.1635 33.8746 10.1149 33.8235 8.08863 33.5937C3.37908 32.9776 0.337441 29.632 0.0525048 25.5831C-0.283395 20.8092 1.05325 16.2928 2.32736 11.7428C2.95514 9.49848 3.55745 7.2502 4.1806 5.00786C5.14892 1.5057 8.88089 -0.205763 12.8074 1.06199C13.6715 1.34129 14.5263 1.65625 15.3557 1.99695C16.3912 2.43076 16.7919 3.21519 16.4653 4.02536C16.1178 4.88703 15.3209 5.3248 14.1835 5.11879C13.3275 4.9288 12.4902 4.68176 11.6793 4.37993C9.71716 3.73417 8.54962 4.21552 8.05851 5.95471C7.0207 9.63912 6.01531 13.3314 5.00066 17.0198C4.98317 17.1421 4.98162 17.2657 4.99603 17.3882ZM14.6352 21.7461C14.3317 21.5481 14.2761 21.4866 14.209 21.4767C11.4241 21.1148 8.5772 21.3678 5.93887 22.2116C5.82316 22.2555 5.72101 22.3219 5.64058 22.4054C5.56015 22.489 5.50364 22.5875 5.47556 22.693C5.42922 23.5943 5.4547 24.4976 5.4547 25.6643L14.6352 21.7461ZM40.9814 21.7461C40.7173 21.5599 40.6385 21.4589 40.5458 21.447C37.8253 21.1322 35.0561 21.3886 32.4773 22.1938C32.3663 22.2412 32.2702 22.3108 32.1972 22.3967C32.1243 22.4825 32.0765 22.5821 32.058 22.687C32.0812 23.5547 32.1738 24.4223 32.2572 25.482L40.9814 21.7461Z" fill="#545454"/>
</svg>
